<?xml version="1.0" encoding="UTF-8" standalone="no"?>
<!-- Created with Inkscape (http://www.inkscape.org/) -->

<svg
   width="61.947849mm"
   height="7.4506717mm"
   viewBox="0 0 61.947849 7.4506717"
   version="1.1"
   id="svg4842"
   inkscape:version="1.2.2 (b0a8486541, 2022-12-01)"
   sodipodi:docname="type-light.svg"
   xmlns:inkscape="http://www.inkscape.org/namespaces/inkscape"
   xmlns:sodipodi="http://sodipodi.sourceforge.net/DTD/sodipodi-0.dtd"
   xmlns="http://www.w3.org/2000/svg"
   xmlns:svg="http://www.w3.org/2000/svg">
  <sodipodi:namedview
     id="namedview4844"
     pagecolor="#ffffff"
     bordercolor="#000000"
     borderopacity="0.25"
     inkscape:showpageshadow="2"
     inkscape:pageopacity="0.0"
     inkscape:pagecheckerboard="0"
     inkscape:deskcolor="#d1d1d1"
     inkscape:document-units="mm"
     showgrid="false"
     inkscape:zoom="5.1754899"
     inkscape:cx="120.66491"
     inkscape:cy="3.188104"
     inkscape:window-width="3774"
     inkscape:window-height="2091"
     inkscape:window-x="66"
     inkscape:window-y="32"
     inkscape:window-maximized="1"
     inkscape:current-layer="layer1" />
  <defs
     id="defs4839">
    <rect
       x="26.475168"
       y="248.67532"
       width="737.78217"
       height="513.6557"
       id="rect790-3-3-7" />
  </defs>
  <g
     inkscape:label="Layer 1"
     inkscape:groupmode="layer"
     id="layer1"
     transform="translate(-53.275749,-91.157791)">
    <g
       aria-label="wattmaven"
       transform="matrix(0.26458333,0,0,0.26458333,46.101675,22.257879)"
       id="text788-6-6-5-56"
       style="font-size:42.6667px;font-family:'Frank Ruhl Libre';-inkscape-font-specification:'Frank Ruhl Libre';white-space:pre;shape-inside:url(#rect790-3-3-7-3);display:inline;fill:#738000">
      <path
         d="M 34.012393,288.14248 27.11461,266.80913 h 6.044449 l 4.26667,13.93779 h 0.177778 l 4.977781,-13.93779 h 5.546671 l 4.977781,13.93779 h 0.177778 l 4.26667,-13.93779 h 5.973338 l -6.862227,21.33335 h -6.293338 l -4.977782,-13.51112 h -0.142222 l -4.942226,13.51112 z"
         style="font-weight:bold;font-family:'Funnel Display';-inkscape-font-specification:'Funnel Display Bold'"
         id="path8823" />
      <path
         d="m 72.696871,288.53359 q -3.768892,0 -5.902227,-1.81334 -2.133335,-1.84889 -2.133335,-4.83556 0,-3.16444 2.204446,-4.87111 2.204446,-1.70667 6.328894,-1.70667 h 6.11556 v -0.81778 q 0,-3.44889 -4.124448,-3.44889 -3.591113,0 -4.337781,2.48889 h -5.866671 q 0.711112,-3.52 3.306669,-5.33333 2.595558,-1.81334 6.897783,-1.81334 4.764448,0 7.253339,2.13334 2.524446,2.13333 2.524446,6.22222 v 7.57334 h 2.773336 v 5.83112 h -5.973338 v -3.48445 H 80.27021 q -1.102223,1.84889 -2.951114,2.88 -1.84889,0.99556 -4.622225,0.99556 z m 0.888889,-4.48 q 1.671113,0 2.951113,-0.60445 1.280001,-0.60444 2.026669,-1.6 0.746667,-1.03111 0.746667,-2.31111 v -0.32 h -5.831116 q -3.200002,0 -3.200002,2.38222 0,1.17333 0.88889,1.81333 0.888889,0.64001 2.417779,0.64001 z"
         style="font-weight:bold;font-family:'Funnel Display';-inkscape-font-specification:'Funnel Display Bold'"
         id="path8825" />
      <path
         d="m 97.799136,288.14248 q -2.275557,0 -3.555558,-1.13778 -1.244446,-1.17334 -1.244446,-3.55556 v -12.01779 h -3.662224 v -4.62222 h 3.733336 v -6.40001 h 5.760004 v 6.40001 h 4.942222 v 4.62222 h -4.871111 v 12.0889 h 5.368891 v 4.62223 z"
         style="font-weight:bold;font-family:'Funnel Display';-inkscape-font-specification:'Funnel Display Bold'"
         id="path8827" />
      <path
         d="m 114.22583,288.14248 q -2.27556,0 -3.55556,-1.13778 -1.24445,-1.17334 -1.24445,-3.55556 v -12.01779 h -3.66222 v -4.62222 h 3.73333 v -6.40001 h 5.76001 v 6.40001 h 4.94222 v 4.62222 h -4.87111 v 12.0889 h 5.36889 v 4.62223 z"
         style="font-weight:bold;font-family:'Funnel Display';-inkscape-font-specification:'Funnel Display Bold'"
         id="path8829" />
      <path
         d="m 125.42584,288.14248 v -15.50224 h -2.91555 v -5.83111 h 5.97333 v 3.48445 h 1.56445 q 1.13778,-1.8489 2.95111,-2.84445 1.81334,-1.03111 4.48001,-1.03111 2.56,0 4.37333,0.92444 1.84889,0.88889 2.95112,2.66667 h 0.14222 q 2.45333,-3.59111 7.28889,-3.59111 4.12445,0 6.54223,2.41778 2.41778,2.38222 2.41778,6.47111 v 12.83557 h -5.90223 v -11.69779 q 0,-4.76445 -4.51556,-4.76445 -4.51556,0 -4.51556,4.76445 v 11.69779 h -5.90222 v -11.69779 q 0,-4.76445 -4.58667,-4.76445 -2.20445,0 -3.34223,1.17334 -1.10222,1.17333 -1.10222,3.59111 v 11.69779 z"
         style="font-weight:bold;font-family:'Funnel Display';-inkscape-font-specification:'Funnel Display Bold'"
         id="path8831" />
      <path
         d="m 172.60808,288.53359 q -3.76889,0 -5.90222,-1.81334 -2.13334,-1.84889 -2.13334,-4.83556 0,-3.16444 2.20445,-4.87111 2.20444,-1.70667 6.32889,-1.70667 h 6.11556 v -0.81778 q 0,-3.44889 -4.12445,-3.44889 -3.59111,0 -4.33778,2.48889 h -5.86667 q 0.71111,-3.52 3.30667,-5.33333 2.59556,-1.81334 6.89778,-1.81334 4.76445,0 7.25334,2.13334 2.52445,2.13333 2.52445,6.22222 v 7.57334 h 2.77333 v 5.83112 h -5.97333 v -3.48445 h -1.49334 q -1.10222,1.84889 -2.95111,2.88 -1.84889,0.99556 -4.62223,0.99556 z m 0.88889,-4.48 q 1.67112,0 2.95112,-0.60445 1.28,-0.60444 2.02666,-1.6 0.74667,-1.03111 0.74667,-2.31111 v -0.32 h -5.83111 q -3.20001,0 -3.20001,2.38222 0,1.17333 0.88889,1.81333 0.88889,0.64001 2.41778,0.64001 z"
         style="font-weight:bold;font-family:'Funnel Display';-inkscape-font-specification:'Funnel Display Bold'"
         id="path8833" />
      <path
         d="m 196.89258,288.14248 -9.13779,-21.33335 h 6.22223 l 5.97334,14.50668 h 0.14222 l 5.79556,-14.50668 h 6.11556 l -9.13779,21.33335 z"
         style="font-weight:bold;font-family:'Funnel Display';-inkscape-font-specification:'Funnel Display Bold'"
         id="path8835" />
      <path
         d="m 224.02149,288.56914 q -3.4489,0 -6.0089,-1.35111 -2.56,-1.38667 -3.94667,-3.87556 -1.38667,-2.52444 -1.38667,-5.93778 0,-3.41333 1.35112,-5.86667 1.35111,-2.48889 3.84,-3.80445 2.52445,-1.35111 5.93778,-1.35111 3.34223,0 5.72445,1.28 2.41778,1.28 3.69778,3.66223 1.28,2.38222 1.28,5.68889 v 1.99111 h -16.17779 q 0.35556,2.38223 1.81334,3.62667 1.45778,1.24445 3.84,1.24445 1.88445,0 2.98667,-0.64 1.10222,-0.64 1.56444,-1.95556 h 5.90223 q -0.71111,3.41334 -3.44889,5.36889 -2.73778,1.92 -6.96889,1.92 z m -5.54668,-13.47556 h 10.38223 q -0.28444,-2.02667 -1.56444,-3.02223 -1.28,-1.03111 -3.44889,-1.03111 -2.16889,0 -3.55556,1.03111 -1.35111,1.03112 -1.81334,3.02223 z"
         style="font-weight:bold;font-family:'Funnel Display';-inkscape-font-specification:'Funnel Display Bold'"
         id="path8837" />
      <path
         d="m 239.5593,288.14248 v -15.50224 h -2.91555 v -5.83111 h 5.97333 v 3.48445 h 1.49334 q 1.24444,-1.8489 3.12889,-2.84445 1.88445,-1.03111 4.69334,-1.03111 4.44445,0 6.86222,2.45333 2.45334,2.41778 2.45334,6.50667 v 12.76446 h -5.90223 v -11.66223 q 0,-2.34667 -1.28,-3.55556 -1.24444,-1.24445 -3.66222,-1.24445 -2.41778,0 -3.69778,1.24445 -1.24445,1.20889 -1.24445,3.55556 v 11.66223 z"
         style="font-weight:bold;font-family:'Funnel Display';-inkscape-font-specification:'Funnel Display Bold'"
         id="path8839" />
    </g>
  </g>
</svg>
